<?xml version="1.0" encoding="UTF-8" standalone="no"?>
<svg
   xmlns:dc="http://purl.org/dc/elements/1.1/"
   xmlns:cc="http://creativecommons.org/ns#"
   xmlns:rdf="http://www.w3.org/1999/02/22-rdf-syntax-ns#"
   xmlns:svg="http://www.w3.org/2000/svg"
   xmlns="http://www.w3.org/2000/svg"
   xmlns:sodipodi="http://sodipodi.sourceforge.net/DTD/sodipodi-0.dtd"
   xmlns:inkscape="http://www.inkscape.org/namespaces/inkscape"
   width="5cm"
   height="5cm"
   viewBox="162 73 85 93"
   id="svg2"
   version="1.1"
   inkscape:version="0.48.4 r9939"
   sodipodi:docname="arrowL.svg">
  <metadata
     id="metadata18">
    <rdf:RDF>
      <cc:Work
         rdf:about="">
        <dc:format>image/svg+xml</dc:format>
        <dc:type
           rdf:resource="http://purl.org/dc/dcmitype/StillImage" />
        <dc:title></dc:title>
      </cc:Work>
    </rdf:RDF>
  </metadata>
  <defs
     id="defs16" />
  <sodipodi:namedview
     pagecolor="#ffffff"
     bordercolor="#666666"
     borderopacity="1"
     objecttolerance="10"
     gridtolerance="10"
     guidetolerance="10"
     inkscape:pageopacity="0"
     inkscape:pageshadow="2"
     inkscape:window-width="640"
     inkscape:window-height="480"
     id="namedview14"
     showgrid="false"
     inkscape:zoom="1.3320889"
     inkscape:cx="88.58268"
     inkscape:cy="88.58268"
     inkscape:window-x="0"
     inkscape:window-y="24"
     inkscape:window-maximized="0"
     inkscape:current-layer="svg2" />
  <rect
     style="fill: none; fill-opacity:0; stroke-width: 2; stroke: #ffffff"
     x="164"
     y="75"
     width="82"
     height="90"
     id="rect4" />
  <g
     id="g6"
     transform="matrix(0.00440722,0.99999029,0.99999029,-0.00440722,78.2225,-78.568007)">
    <polygon
       style="fill:#ffffff"
       points="205.675,153.551 184.092,131.967 194.884,131.967 194.884,110.384 173.3,110.384 173.3,88.8 216.467,88.8 216.467,131.967 227.259,131.967 "
       id="polygon8" />
    <polygon
       style="fill:none;stroke:#000000;stroke-width:2"
       points="205.675,153.551 184.092,131.967 194.884,131.967 194.884,110.384 173.3,110.384 173.3,88.8 216.467,88.8 216.467,131.967 227.259,131.967 "
       id="polygon10" />
    <polygon
       style="fill:none;stroke:#000000;stroke-width:0.2"
       points="205.675,153.551 184.092,131.967 194.884,131.967 194.884,110.384 173.3,110.384 173.3,88.8 216.467,88.8 216.467,131.967 227.259,131.967 "
       id="polygon12" />
  </g>
</svg>
