<?xml version="1.0" encoding="UTF-8" standalone="no"?>
<!DOCTYPE svg PUBLIC "-//W3C//DTD SVG 1.0//EN" "http://www.w3.org/TR/2001/PR-SVG-20010719/DTD/svg10.dtd">
<svg width="45cm" height="46cm" viewBox="1000 -337 885 910" xmlns="http://www.w3.org/2000/svg" xmlns:xlink="http://www.w3.org/1999/xlink">
  <g>
    <rect style="fill: #ffffff" x="1001.87" y="-335.092" width="882.156" height="907.662"/>
    <rect style="fill: none; fill-opacity:0; stroke-width: 2; stroke: #ffffff" x="1001.87" y="-335.092" width="882.156" height="907.662"/>
    <text font-size="12.8" style="fill: #000000;text-anchor:middle;font-family:sans-serif;font-style:normal;font-weight:normal" x="1442.95" y="122.639">
      <tspan x="1442.95" y="122.639"></tspan>
    </text>
  </g>
  <path style="fill: none; fill-opacity:0; stroke-width: 160; stroke: #7f7f7f" d="M 1367,-152 A 285.71,285.71 0 1 0 1731.45,117.213"/>
  <g>
    <g>
      <rect style="fill: #ffcc66" x="1136.7" y="-49.2" width="130" height="66"/>
      <rect style="fill: none; fill-opacity:0; stroke-width: 2; stroke: #000000" x="1136.7" y="-49.2" width="130" height="66"/>
    </g>
    <text font-size="12.8" style="fill: #000000;text-anchor:start;font-family:sans-serif;font-style:normal;font-weight:normal" x="1145" y="-12">
      <tspan x="1145" y="-12">User commitment</tspan>
    </text>
  </g>
  <g>
    <g>
      <rect style="fill: #ffcc66" x="1103.8" y="156.2" width="130" height="66"/>
      <rect style="fill: none; fill-opacity:0; stroke-width: 2; stroke: #000000" x="1103.8" y="156.2" width="130" height="66"/>
    </g>
    <text font-size="12.8" style="fill: #000000;text-anchor:start;font-family:sans-serif;font-style:normal;font-weight:normal" x="1115" y="193">
      <tspan x="1115" y="193">User acceptance</tspan>
    </text>
  </g>
  <g>
    <g>
      <rect style="fill: #ffcc66" x="1245.5" y="345" width="130" height="66"/>
      <rect style="fill: none; fill-opacity:0; stroke-width: 2; stroke: #000000" x="1245.5" y="345" width="130" height="66"/>
    </g>
    <text font-size="12.8" style="fill: #000000;text-anchor:start;font-family:sans-serif;font-style:normal;font-weight:normal" x="1256" y="373">
      <tspan x="1256" y="373">Short users tests</tspan>
      <tspan x="1256" y="389">and feedback</tspan>
    </text>
  </g>
  <g>
    <g>
      <rect style="fill: #f88fa1" x="1629.9" y="240.6" width="130" height="66"/>
      <rect style="fill: none; fill-opacity:0; stroke-width: 2; stroke: #000000" x="1629.9" y="240.6" width="130" height="66"/>
    </g>
    <text font-size="12.8" style="fill: #000000;text-anchor:start;font-family:sans-serif;font-style:normal;font-weight:normal" x="1670" y="278">
      <tspan x="1670" y="278">Changes</tspan>
    </text>
  </g>
  <text font-size="12.8" style="fill: #000000;text-anchor:start;font-family:sans-serif;font-style:normal;font-weight:normal" x="1631.25" y="-154.091">
    <tspan x="1631.25" y="-154.091">Involves the researcher</tspan>
  </text>
  <text font-size="12.8" style="fill: #000000;text-anchor:start;font-family:sans-serif;font-style:normal;font-weight:normal" x="1632.84" y="-102.772">
    <tspan x="1632.84" y="-102.772">Involves other people</tspan>
  </text>
  <text font-size="12.8" style="fill: #000000;text-anchor:start;font-family:sans-serif;font-style:normal;font-weight:normal" x="1732.76" y="-97.908">
    <tspan x="1732.76" y="-97.908"></tspan>
  </text>
  <text font-size="12.8" style="fill: #000000;text-anchor:start;font-family:sans-serif;font-style:normal;font-weight:700" x="261.982" y="228.096">
    <tspan x="261.982" y="228.096"></tspan>
  </text>
  <g>
    <rect style="fill: #f88fa1" x="1230.49" y="-156.395" width="130" height="66"/>
    <rect style="fill: none; fill-opacity:0; stroke-width: 2; stroke: #000000" x="1230.49" y="-156.395" width="130" height="66"/>
  </g>
  <text font-size="12.8" style="fill: #000000;text-anchor:start;font-family:sans-serif;font-style:normal;font-weight:normal" x="1254.49" y="-127.395">
    <tspan x="1254.49" y="-127.395">Real problem</tspan>
    <tspan x="1254.49" y="-111.395">Identification</tspan>
  </text>
  <text font-size="19.7556" style="fill: #d8e5e5;text-anchor:start;font-family:sans-serif;font-style:normal;font-weight:700" x="1121.03" y="-154.175">
    <tspan x="1121.03" y="-154.175">1</tspan>
  </text>
  <g>
    <g>
      <rect style="fill: #f88fa1" x="1100.1" y="57.4" width="130" height="66"/>
      <rect style="fill: none; fill-opacity:0; stroke-width: 2; stroke: #000000" x="1100.1" y="57.4" width="130" height="66"/>
    </g>
    <text font-size="12.8" style="fill: #000000;text-anchor:start;font-family:sans-serif;font-style:normal;font-weight:normal" x="1134" y="87">
      <tspan x="1134" y="87">Study the</tspan>
      <tspan x="1134" y="103"> problem</tspan>
    </text>
  </g>
  <g>
    <g>
      <rect style="fill: #ffcc66" x="1551.6" y="327.4" width="130" height="66"/>
      <rect style="fill: none; fill-opacity:0; stroke-width: 2; stroke: #000000" x="1551.6" y="327.4" width="130" height="66"/>
    </g>
    <text font-size="12.8" style="fill: #000000;text-anchor:start;font-family:sans-serif;font-style:normal;font-weight:normal" x="1566" y="362">
      <tspan x="1566" y="362">User evaluation</tspan>
    </text>
  </g>
  <g>
    <g>
      <rect style="fill: #f88fa1" x="1411.2" y="379.8" width="130" height="66"/>
      <rect style="fill: none; fill-opacity:0; stroke-width: 2; stroke: #000000" x="1411.2" y="379.8" width="130" height="66"/>
    </g>
    <text font-size="12.8" style="fill: #000000;text-anchor:start;font-family:sans-serif;font-style:normal;font-weight:normal" x="1428" y="408">
      <tspan x="1428" y="408">App coding &amp;</tspan>
      <tspan x="1428" y="424">development</tspan>
    </text>
  </g>
  <g>
    <g>
      <rect style="fill: #f88fa1" x="1661.45" y="133.513" width="130" height="66"/>
      <rect style="fill: none; fill-opacity:0; stroke-width: 2; stroke: #000000" x="1661.45" y="133.513" width="130" height="66"/>
    </g>
    <text font-size="12.8" style="fill: #000000;text-anchor:start;font-family:sans-serif;font-style:normal;font-weight:normal" x="1687.55" y="165.913">
      <tspan x="1687.55" y="165.913">Installation &amp; </tspan>
      <tspan x="1687.55" y="181.913"> Deployment</tspan>
    </text>
  </g>
  <text font-size="45.1556" style="fill: #000000;text-anchor:start;font-family:sans-serif;font-style:normal;font-weight:700" x="1376.78" y="-3.20059">
    <tspan x="1376.78" y="-3.20059">  Each </tspan>
    <tspan x="1376.78" y="53.2439"> project </tspan>
    <tspan x="1376.78" y="109.688">life-cycle</tspan>
  </text>
  <g>
    <path style="fill: none; fill-opacity:0; stroke-width: 2; stroke: #000000" d="M 1391.45,-47.7866 A 178.037,178.037 0 1 0 1623,134.928"/>
    <line style="fill: none; fill-opacity:0; stroke-width: 2; stroke: #000000" x1="1381.92" y1="-44.7538" x2="1392.96" y2="-43.0221"/>
    <line style="fill: none; fill-opacity:0; stroke-width: 2; stroke: #000000" x1="1381.92" y1="-44.7538" x2="1389.93" y2="-52.5511"/>
    <polygon style="fill: #000000" points="1623.41,127.449 1628.22,137.541 1623.26,134.948 1618.22,137.353 "/>
    <polygon style="fill: none; fill-opacity:0; stroke-width: 2; stroke: #000000" points="1623.41,127.449 1628.22,137.541 1623.26,134.948 1618.22,137.353 "/>
  </g>
  <g>
    <rect style="fill: #f88fa1" x="1610.13" y="-170.177" width="8.23484" height="20.8116"/>
    <rect style="fill: none; fill-opacity:0; stroke-width: 2; stroke: #7f7f7f" x="1610.13" y="-170.177" width="8.23484" height="20.8116"/>
  </g>
  <g>
    <rect style="fill: #ffcc66" x="1610.68" y="-120.872" width="8.13949" height="20.8116"/>
    <rect style="fill: none; fill-opacity:0; stroke-width: 2; stroke: #7f7f7f" x="1610.68" y="-120.872" width="8.13949" height="20.8116"/>
  </g>
  <g>
    <rect style="fill: #ffcc66" x="1596.35" y="-121.42" width="8.13949" height="20.8116"/>
    <rect style="fill: none; fill-opacity:0; stroke-width: 2; stroke: #7f7f7f" x="1596.35" y="-121.42" width="8.13949" height="20.8116"/>
  </g>
  <g>
    <rect style="fill: #ffcc66" x="1582.11" y="-121.31" width="8.13949" height="20.8116"/>
    <rect style="fill: none; fill-opacity:0; stroke-width: 2; stroke: #7f7f7f" x="1582.11" y="-121.31" width="8.13949" height="20.8116"/>
  </g>
  <g>
    <rect style="fill: #ffcc66" x="1566.77" y="-121.201" width="8.13949" height="20.8116"/>
    <rect style="fill: none; fill-opacity:0; stroke-width: 2; stroke: #7f7f7f" x="1566.77" y="-121.201" width="8.13949" height="20.8116"/>
  </g>
  <g>
    <rect style="fill: #f88fa1" x="1596.35" y="-170.177" width="8.23484" height="20.8116"/>
    <rect style="fill: none; fill-opacity:0; stroke-width: 2; stroke: #7f7f7f" x="1596.35" y="-170.177" width="8.23484" height="20.8116"/>
  </g>
  <g>
    <rect style="fill: #f88fa1" x="1582.2" y="-170.177" width="8.23484" height="20.8116"/>
    <rect style="fill: none; fill-opacity:0; stroke-width: 2; stroke: #7f7f7f" x="1582.2" y="-170.177" width="8.23484" height="20.8116"/>
  </g>
  <g>
    <rect style="fill: #f88fa1" x="1566.77" y="-170.177" width="8.23484" height="20.8116"/>
    <rect style="fill: none; fill-opacity:0; stroke-width: 2; stroke: #7f7f7f" x="1566.77" y="-170.177" width="8.23484" height="20.8116"/>
  </g>
  <g>
    <rect style="fill: #f88fa1" x="1552.08" y="-170.177" width="8.23484" height="20.8116"/>
    <rect style="fill: none; fill-opacity:0; stroke-width: 2; stroke: #7f7f7f" x="1552.08" y="-170.177" width="8.23484" height="20.8116"/>
  </g>
  <g>
    <rect style="fill: #f88fa1" x="1537.74" y="-170.177" width="8.23484" height="20.8116"/>
    <rect style="fill: none; fill-opacity:0; stroke-width: 2; stroke: #7f7f7f" x="1537.74" y="-170.177" width="8.23484" height="20.8116"/>
  </g>
  <g>
    <g>
      <rect style="fill: #f88fa1" x="1139.4" y="252.6" width="130" height="66"/>
      <rect style="fill: none; fill-opacity:0; stroke-width: 2; stroke: #000000" x="1139.4" y="252.6" width="130" height="66"/>
    </g>
    <text font-size="12.8" style="fill: #000000;text-anchor:start;font-family:sans-serif;font-style:normal;font-weight:normal" x="1142.36" y="283.488">
      <tspan x="1142.36" y="283.488">MockUp / Prototype</tspan>
      <tspan x="1142.36" y="299.488">  possible solutions</tspan>
    </text>
  </g>
</svg>
